<svg aria-hidden="true" preserveAspectRatio="xMidYMid" xmlns="http://www.w3.org/2000/svg" class="icon">
    <path d="M14.177 15.774c.235.53.411.94.647 1.41.235-.528.412-.998.647-1.527.235-.53.411-.94.647-1.352l6.47-12.754c.118-.235.235-.353.353-.529a1.79 1.79 0 01.411-.294c.118-.058.294-.058.53-.058h5.117v25.213h-5.176v-14.4c0-.705 0-1.41.059-2.291l-6.705 12.93c-.236.411-.53.705-.883.94-.352.235-.706.294-1.235.294h-.765c-.411 0-.882-.059-1.235-.294a2.725 2.725 0 01-.882-.94L5.472 9.192c.059.411.059.764.059 1.234v15.516H.355V.846h5.117c.235 0 .353 0 .53.059.117.058.293.117.411.293.118.118.235.294.353.53l6.47 12.812c.53.294.764.823.941 1.234zM57.055.728h4.705c.53 0 .942.118 1.236.353.294.235.588.529.705.94l4.882 13.46c.235.587.412 1.234.647 1.939.236.705.412 1.41.647 2.174.118-.764.353-1.528.588-2.174.235-.705.412-1.293.647-1.94l4.823-13.459c.118-.294.353-.646.647-.881.353-.294.706-.353 1.235-.353h4.765L72.524 25.942H67.17L57.055.728zm33.467 25.214H84.64V.787h5.882v25.155zM98.521.846c.118 0 .353.059.412.117.118.06.294.118.412.294l.412.412 11.94 15.104c-.06-.529-.06-.94-.06-1.41V.787h5.177v25.155h-3c-.412 0-.883-.059-1.177-.235-.294-.118-.588-.353-.882-.764L99.874 9.956c0 .411.059.881.059 1.293V25.884h-5.117V.727h3.117c.176 0 .412.118.588.118zm33.82 20.923c.765 0 1.53-.059 2.176-.235.647-.118 1.235-.294 1.706-.588v-3.82h-2.53c-.352 0-.646-.059-.881-.294s-.295-.411-.295-.705v-3.233h8.94v10.638c-.646.53-1.293.882-1.999 1.235-.705.352-1.411.646-2.235.881-.765.235-1.647.353-2.53.53-.881.058-1.881.117-2.88.117-1.883 0-3.53-.353-5.118-1-1.588-.646-2.941-1.586-4.117-2.644-1.177-1.176-2-2.528-2.647-4.114-.647-1.587-1-3.292-1-5.114 0-1.88.294-3.585.94-5.172a13.027 13.027 0 012.647-4.114c1.177-1.175 2.589-1.998 4.177-2.645 1.647-.646 3.47-.94 5.47-.94 1.058 0 2 .059 2.94.294.941.117 1.824.411 2.53.705.764.294 1.53.647 2.176 1.058.647.411 1.235.882 1.706 1.352l-1.706 2.586c-.118.235-.353.411-.588.588-.236.117-.53.235-.706.235-.353 0-.706-.118-1.059-.353a7.03 7.03 0 00-1.294-.705c-.412-.235-.764-.353-1.235-.53a9.142 9.142 0 00-1.352-.293c-.53-.059-1-.059-1.589-.059a7.95 7.95 0 00-2.94.588 5.689 5.689 0 00-2.235 1.645c-.648.706-1.06 1.529-1.412 2.528-.353.999-.53 2.057-.53 3.291 0 1.352.236 2.527.588 3.526.353 1 .883 1.94 1.53 2.586.647.706 1.411 1.235 2.293 1.646 1.06.294 2.06.53 3.06.53zM142.751.73h4.883c.53 0 .941.117 1.294.352.352.235.588.529.647.94l3.47 13.107c.118.411.235.881.353 1.351.117.53.235 1 .294 1.529.117-.588.235-1.058.353-1.529.118-.528.294-.94.412-1.351l4.117-13.107c.059-.294.353-.646.647-.881.352-.294.706-.353 1.235-.353h1.706c.53 0 .94.118 1.235.353.353.235.588.529.647.94l4.058 13.106c.118.412.294.882.412 1.293.118.412.294.94.353 1.411.059-.529.235-1 .294-1.41.059-.412.235-.882.294-1.294l3.47-13.106c.06-.353.294-.647.648-.882.352-.293.764-.352 1.234-.352h4.588L171.631 26h-5.234l-4.765-15.752c-.058-.235-.117-.528-.235-.763-.059-.294-.118-.588-.235-.94-.059.293-.118.646-.235.94-.06.293-.118.587-.236.763l-4.881 15.634h-5.235L142.752.728zm61.995 12.635c0 1.822-.294 3.527-.942 5.114a13.017 13.017 0 01-2.646 4.114c-1.118 1.175-2.53 2.057-4.118 2.762-1.588.647-3.41 1-5.352 1-1.94 0-3.764-.353-5.353-1-1.587-.646-2.999-1.587-4.117-2.762-1.176-1.176-2-2.527-2.647-4.114-.646-1.587-.94-3.233-.94-5.114 0-1.821.294-3.526.94-5.113a13.017 13.017 0 012.647-4.114c1.117-1.175 2.53-2.057 4.117-2.762 1.589-.647 3.412-1 5.353-1 1.941 0 3.764.353 5.352 1 1.589.646 2.941 1.587 4.118 2.762 1.176 1.176 2 2.527 2.646 4.114.648 1.646.942 3.292.942 5.113zm-5.941 0c0-1.234-.118-2.35-.53-3.408-.293-1-.764-1.881-1.352-2.528-.589-.705-1.353-1.234-2.235-1.587a8.02 8.02 0 00-3-.587c-1.117 0-2.176.235-3 .587-.882.353-1.647.882-2.235 1.587a6.95 6.95 0 00-1.352 2.528c-.295.999-.53 2.057-.53 3.408 0 1.235.118 2.351.53 3.41.294.998.764 1.88 1.352 2.527.588.705 1.353 1.234 2.235 1.586a8.02 8.02 0 003 .588c1.118 0 2.059-.235 3-.588.882-.352 1.588-.881 2.235-1.586a6.951 6.951 0 001.353-2.528c.353-1.058.529-2.116.529-3.409zm14.175 3.292v9.286h-5.823V.787h8.235c1.823 0 3.41.235 4.705.588 1.294.352 2.294.881 3.176 1.587.765.646 1.353 1.41 1.823 2.35.353.941.589 1.881.589 2.94a7.48 7.48 0 01-.353 2.291c-.235.706-.588 1.352-1 1.999-.412.646-.942 1.175-1.588 1.645-.647.53-1.353.882-2.177 1.235.354.235.765.41 1.059.705.353.294.647.646.882 1.058l5.353 8.757h-5.411c-1 0-1.647-.353-2.059-1.058l-4.176-7.347c-.235-.293-.412-.587-.647-.705a2.347 2.347 0 00-1.059-.235c-.058.059-1.529.059-1.529.059zm0-4.056h2.353c.764 0 1.411-.058 2-.293.588-.236 1-.53 1.352-.882.353-.353.647-.764.765-1.234.117-.53.235-1 .235-1.528 0-1.058-.353-1.94-1.058-2.586-.706-.647-1.824-.94-3.294-.94h-2.353V12.6zm22.586 8.64h9.352v4.702h-15.175V.787h5.823V21.24zm34.467-7.876c0 1.822-.294 3.527-.941 5.055-.647 1.528-1.53 2.88-2.647 3.938-1.176 1.175-2.529 1.998-4.117 2.586-1.588.646-3.412.94-5.352.94h-9.764V.728h9.764c1.94 0 3.764.294 5.352.94a13.99 13.99 0 014.117 2.587c1.176 1.175 2 2.468 2.647 3.938.647 1.704.941 3.35.941 5.171zm-5.94 0c0-1.234-.118-2.35-.53-3.408-.294-1-.765-1.881-1.353-2.528-.588-.705-1.353-1.234-2.235-1.587a8.02 8.02 0 00-3-.587h-3.94v16.162h3.881c1.177 0 2.06-.235 3-.587.883-.353 1.589-.94 2.235-1.587a6.95 6.95 0 001.353-2.527c.412-1 .588-2.058.588-3.35zm22.35-7.464a1.275 1.275 0 01-.588.647c-.235.117-.412.235-.706.235s-.588-.059-.882-.235c-.294-.118-.647-.353-1-.588s-.765-.353-1.294-.588c-.53-.117-1.059-.235-1.706-.235-1.058 0-1.94.235-2.47.705-.53.412-.765 1.058-.765 1.881 0 .53.118.94.53 1.293.294.353.706.647 1.294.882.529.235 1.176.411 1.823.646.647.235 1.353.412 2.059.647.706.235 1.352.529 2.058.881.647.353 1.294.765 1.823 1.293.53.53.942 1.176 1.294 1.881.294.706.53 1.646.53 2.645 0 1.175-.236 2.233-.588 3.233-.412.999-1 1.88-1.706 2.644a9.73 9.73 0 01-2.823 1.822 11.088 11.088 0 01-3.823.647c-.765 0-1.589-.059-2.353-.235a11.699 11.699 0 01-2.353-.647c-.764-.294-1.412-.646-2.176-1.058a10.159 10.159 0 01-1.706-1.351l1.706-2.763c.118-.235.294-.352.53-.529.234-.117.528-.235.705-.235.353 0 .706.118 1.059.353s.706.411 1.235.705c.412.294.941.529 1.53.705.588.235 1.234.353 1.999.353 1.059 0 1.882-.235 2.47-.705.589-.412.883-1.235.883-2.234 0-.587-.118-1.058-.53-1.41-.294-.353-.705-.647-1.293-.94-.53-.236-1.177-.412-1.824-.647-.647-.235-1.353-.353-2.059-.647-.706-.235-1.352-.529-2.058-.881-.647-.353-1.294-.764-1.823-1.293-.53-.53-.942-1.234-1.295-1.999a8.465 8.465 0 01-.53-2.938c0-.94.236-1.88.589-2.762a6.561 6.561 0 011.647-2.351c.706-.706 1.647-1.294 2.764-1.646 1.06-.411 2.294-.647 3.647-.647.765 0 1.53.06 2.235.236.706.117 1.412.293 2.059.528.647.235 1.294.53 1.882.882.588.353 1.059.705 1.53 1.058l-1.53 2.762zM44.35.552c-2.47 0-4.764.705-6.705 1.88l1.53 3.468 3.587 8.405 5.117 6.112c-1.058.53-2.235.882-3.529.882a7.904 7.904 0 01-7.94-7.935c0-1.528.412-2.88 1.176-4.055L35.41 4.196a12.903 12.903 0 00-3.882 9.227c0 7.112 5.764 12.872 12.88 12.872 2.471 0 4.766-.706 6.706-1.94L49.82 21.24l-3.764-8.933-5.117-6.054c1.059-.53 2.235-.764 3.47-.764a7.904 7.904 0 017.94 7.934c0 1.41-.412 2.821-1.058 4.056l2.235 5.172a12.682 12.682 0 003.823-9.11C57.23 6.31 51.467.55 44.35.55zm0 11.99c.412 0 .765.352.765.764a.778.778 0 01-.765.764.778.778 0 01-.764-.764c-.118-.412.353-.764.764-.764z" fill="#FFFFFF"/>
</svg>